 <svg
          width="173"
          height="163"
          viewBox="0 0 173 163"
          fill="none"
          xmlns="http://www.w3.org/2000/svg"
        >
          <path
            d="M33.9256 31.2747C33.8031 31.3808 33.5825 31.5194 33.4437 31.5928C32.9944 31.8212 32.6758 32.5633 32.6758 33.3952C32.6758 33.9906 32.8637 34.3413 33.2721 34.5615C33.4273 34.643 33.6806 34.8714 33.8276 35.0671C34.1544 35.4994 34.5955 35.7359 35.1183 35.793C35.5921 35.8338 35.8372 35.7196 36.3682 35.2058C36.6868 34.8959 36.7848 34.7246 36.9318 34.2434C37.2014 33.33 37.1851 33.175 36.7195 32.4329C36.2783 31.7233 35.878 31.4052 35.1755 31.2013C34.5792 31.0219 34.2034 31.0464 33.9256 31.2747Z"
            fill="#1E2022"
          />
          <path
            d="M40.7215 37.7013C40.6317 37.7503 40.403 37.946 40.2232 38.1254C39.4554 38.8839 39.2838 40.1399 39.8148 41.1838C40.0517 41.6405 40.2723 41.8444 40.8114 42.1135C41.5875 42.505 42.1756 42.66 42.5024 42.5702C42.968 42.4479 43.5398 41.8607 43.8911 41.1593C44.3159 40.3275 44.3649 39.8136 44.0953 39.2264C43.7931 38.5658 43.5153 38.2967 42.7883 37.9297C42.192 37.6361 42.0776 37.6035 41.5058 37.6035C41.1627 37.6035 40.8114 37.6524 40.7215 37.7013Z"
            fill="#1E2022"
          />
          <path
            d="M47.8287 43.6055C47.5019 43.7686 47.216 44.0459 47.216 44.1846C47.216 44.2498 47.1262 44.4211 47.0118 44.5679C46.6769 45.0083 46.5625 45.3835 46.5625 46.0604C46.5625 46.5742 46.6033 46.7862 46.7749 47.1451C47.1752 48.0096 47.4856 48.2787 48.3188 48.4989C49.1847 48.7354 49.5523 48.6213 50.3447 47.8791C50.8267 47.4387 50.9084 47.3 51.0636 46.827C51.2678 46.1582 51.2188 45.5629 50.9002 44.886C50.6225 44.3069 50.4183 44.103 49.7402 43.7523C49.2909 43.5158 49.1357 43.475 48.6456 43.475C48.2862 43.475 47.9839 43.524 47.8287 43.6055Z"
            fill="#1E2022"
          />
          <path
            d="M54.3648 50.3181C53.9073 50.4649 53.5315 50.7422 53.3518 51.0603C53.1721 51.3865 53.1639 51.4681 53.1966 52.406C53.2456 53.6049 53.3763 53.9556 54.0462 54.5591C54.5445 55.0158 55.198 55.3013 55.7535 55.3013C56.0394 55.3013 56.211 55.236 56.6276 54.9506C57.0606 54.6651 57.1831 54.5183 57.4037 54.0779C57.6651 53.556 57.8529 53.0014 57.951 52.4549C58.0163 52.0716 57.7713 51.566 57.2484 51.0114C56.6439 50.3589 56.3499 50.2447 55.3451 50.2529C54.8958 50.2611 54.4546 50.2855 54.3648 50.3181Z"
            fill="#1E2022"
          />

          <path
            d="M1.35611 0.0664368C0.882311 0.19693 0.228797 0.881989 0.106263 1.37134C-0.25317 2.79042 0.318655 5.17186 1.52766 7.26787C1.9116 7.93663 2.50793 9.03764 2.84285 9.71455C3.51271 11.0439 3.68425 11.3375 5.25269 13.8087C5.83268 14.7221 6.71492 16.2228 7.20506 17.1525C8.47124 19.5258 8.51209 19.5992 9.44335 21.0101C9.90081 21.7034 10.489 22.6086 10.7585 23.0246C12.9887 26.4989 13.487 27.2329 14.9819 29.2636C16.6647 31.5554 16.9343 31.9224 17.4652 32.7053C17.7757 33.1457 18.6007 34.2712 19.3032 35.1928C20.0139 36.1144 20.8553 37.2399 21.1821 37.6884C23.0855 40.3309 26.353 44.2945 28.5913 46.6678C28.9344 47.0266 29.5961 47.7607 30.0699 48.2908C30.5437 48.8209 31.2217 49.5875 31.5811 49.9953C31.9406 50.4031 32.4389 50.9903 32.6839 51.3084C33.5662 52.4501 37.7568 56.7808 38.8923 57.7432C39.2763 58.0612 40.3056 59.0073 41.1796 59.8392C43.4669 62.0086 43.5895 62.1146 43.9081 62.1146C44.1531 62.1146 44.3002 62.2451 45.403 63.395C46.0728 64.1046 46.7427 64.863 46.8979 65.0914C47.0449 65.3116 47.6903 66.0293 48.3274 66.6817C48.9646 67.3342 49.5691 68.003 49.6671 68.1661C49.7652 68.3373 49.8877 68.476 49.9286 68.476C49.9694 68.476 50.239 68.7207 50.5249 69.0143C50.8108 69.3079 51.3826 69.8298 51.7829 70.1724C52.1913 70.5231 53.0736 71.306 53.7516 71.9258C54.4296 72.5538 55.1158 73.1655 55.271 73.2878C55.9572 73.8342 59.3637 76.9334 60.3358 77.8958C60.6544 78.2138 61.2752 78.8092 61.7245 79.2333C62.9743 80.4077 63.4726 81.1499 63.4808 81.8105C63.4808 82.3406 63.44 82.365 62.5741 82.3161C62.1493 82.2916 61.5529 82.2264 61.2343 82.1693C60.9239 82.1122 60.5563 82.0714 60.4175 82.0633C60.2459 82.0633 59.6087 81.6963 58.3344 80.8889C57.3214 80.2446 56.3902 79.6329 56.2513 79.5432C56.1206 79.4453 55.6631 79.1273 55.2383 78.8337C53.6127 77.7082 52.3874 76.8274 51.1947 75.9384C50.6474 75.5306 49.7243 74.8619 49.1443 74.4541C48.2131 73.8016 47.6658 73.4672 45.7134 72.3744C45.4928 72.2521 45.1742 72.146 45.019 72.146C44.8638 72.146 44.5289 72.0726 44.2838 71.9829C43.8019 71.8116 43.1402 71.7709 42.9033 71.9014C42.8216 71.9421 42.7072 72.0971 42.65 72.2439C42.5929 72.3907 42.4867 72.5783 42.4213 72.6517C42.2579 72.8474 42.3396 73.2144 42.7317 73.9403C42.9114 74.2747 43.3526 75.1391 43.712 75.8568C44.7985 78.0344 45.1171 78.5971 45.7869 79.4861C46.759 80.7747 46.8815 80.9297 47.6004 81.7697C47.9598 82.1938 48.695 83.0746 49.226 83.727C51.2274 86.1656 52.2485 87.2666 56.6189 91.6788C59.2575 94.3375 59.9845 95.1123 61.8879 97.2246C63.4645 98.9862 69.7954 105.225 72.7934 107.982C73.9043 109.001 76.2652 111.26 77.1964 112.198C78.4953 113.495 83.9766 118.747 84.0583 118.78C84.091 118.788 85.6022 120.321 87.4157 122.189C89.989 124.831 90.9692 125.786 91.9005 126.536C92.554 127.066 93.2565 127.604 93.4608 127.727C93.665 127.857 94.2368 128.265 94.7269 128.624C96.7447 130.108 98.0435 130.956 99.6773 131.837C100.2 132.114 100.878 132.547 101.189 132.783C101.94 133.37 102.455 133.705 103.672 134.39C105.126 135.214 106.123 135.597 106.833 135.597C107.168 135.597 107.568 135.23 107.961 134.545C108.238 134.056 108.426 133.843 108.769 133.607C109.006 133.444 109.357 133.093 109.537 132.84C109.888 132.351 111.563 130.663 112.151 130.222C112.405 130.027 112.494 129.896 112.494 129.733C112.494 129.456 112.355 129.317 112.078 129.317C111.874 129.317 111.816 129.236 111.441 128.485C110.885 127.368 109.202 124.986 108.287 124.016C107.879 123.592 107.274 122.931 106.939 122.548C106.605 122.173 105.992 121.528 105.583 121.121C105.183 120.721 104.546 120.077 104.187 119.693C103.051 118.503 98.5173 114.042 97.8393 113.446C97.488 113.136 97.0224 112.631 96.8018 112.313C95.1681 109.972 94.8903 109.491 94.8005 108.838C94.7596 108.52 94.776 108.455 94.9883 108.276C95.2089 108.072 95.5357 107.933 96.0421 107.827C96.2872 107.778 97.1531 108.088 97.9128 108.488C98.0517 108.561 98.6889 108.895 99.3424 109.238C99.9959 109.572 101.099 110.208 101.793 110.641C103.361 111.627 105.306 112.786 106.155 113.242C106.703 113.544 106.833 113.585 106.964 113.503C107.095 113.414 107.356 113.544 108.884 114.466C109.856 115.053 111.155 115.877 111.759 116.301C112.364 116.733 113.27 117.32 113.761 117.622C115.19 118.478 115.95 118.959 116.13 119.123C116.448 119.4 117.861 120.248 118.784 120.713C119.299 120.974 119.814 121.243 119.928 121.325C120.042 121.398 120.778 121.806 121.562 122.222C122.346 122.638 123.253 123.151 123.563 123.363C123.882 123.576 124.266 123.812 124.421 123.894C124.576 123.975 125.025 124.244 125.418 124.497C125.81 124.75 126.398 125.101 126.725 125.288C127.051 125.476 127.738 125.859 128.252 126.145C129.012 126.577 129.273 126.764 129.682 127.237C129.951 127.547 130.441 128.077 130.752 128.404C131.544 129.244 135.024 132.049 136.307 132.889C136.895 133.273 137.965 134.007 138.7 134.512C139.427 135.026 140.44 135.654 140.947 135.915C141.453 136.168 142.303 136.649 142.842 136.983C143.381 137.31 144.067 137.717 144.361 137.881C144.664 138.052 145.031 138.28 145.178 138.386C145.333 138.5 145.938 138.884 146.518 139.226C147.106 139.577 147.735 139.968 147.923 140.099C148.119 140.229 148.756 140.596 149.353 140.914C149.949 141.232 150.815 141.722 151.272 142.015C151.738 142.301 152.326 142.627 152.579 142.741C153.102 142.961 153.127 142.978 154.523 143.736C157.138 145.155 159.131 146.069 159.49 146.02C159.931 145.955 159.997 144.903 159.605 144.234C159.025 143.247 158.42 142.064 157.987 141.061C157.881 140.817 157.611 140.344 157.391 140.001C157.17 139.667 156.819 139.055 156.607 138.655C156.402 138.248 155.953 137.571 155.618 137.147C155.071 136.445 153.764 134.537 152.726 132.906C151.73 131.348 148.34 127.425 146.101 125.239C144.337 123.518 141.502 121.161 139.738 119.954C139.313 119.669 138.48 118.943 137.777 118.258C137.107 117.597 136.405 116.969 136.225 116.855C136.045 116.741 135.621 116.439 135.286 116.187C134.951 115.934 134.469 115.575 134.216 115.387C133.734 115.045 132.925 114.074 131.16 111.742C130.213 110.502 128.367 108.161 127.002 106.481C126.725 106.147 126.12 105.372 125.646 104.769C124.413 103.17 123.114 101.555 122.052 100.291C121.26 99.3533 121.072 99.0841 121.072 98.8965C121.072 98.7987 120.876 98.4969 120.631 98.2196C119.936 97.4204 118.302 94.7698 117.861 93.7177C117.747 93.4486 117.396 92.6982 117.085 92.0458C116.505 90.8306 116.007 89.2647 116.007 88.6204C116.007 88.2371 116.399 87.4705 116.636 87.3889C116.857 87.3074 117.379 87.5765 118.008 88.074C118.245 88.2616 118.874 88.7264 119.397 89.1098C119.928 89.4849 120.81 90.2189 121.349 90.7409C122.354 91.7033 124.086 93.1305 124.748 93.5546C124.952 93.6851 125.524 94.0929 126.014 94.4517C128.032 95.936 129.331 96.7842 130.964 97.665C131.487 97.9423 132.165 98.3746 132.476 98.6111C133.227 99.1983 133.742 99.5327 134.959 100.218C136.413 101.041 137.41 101.425 138.12 101.425C138.455 101.425 138.855 101.058 139.248 100.373C139.525 99.8834 139.713 99.6713 140.056 99.4348C140.293 99.2717 140.644 98.921 140.824 98.6682C141.175 98.1788 142.85 96.4906 143.438 96.0502C143.691 95.8545 143.781 95.724 143.781 95.5609C143.781 95.2836 143.642 95.1449 143.365 95.1449C143.161 95.1449 143.103 95.0634 142.728 94.3049C142.172 93.1957 140.489 90.8143 139.574 89.8438C139.166 89.4197 138.561 88.7591 138.226 88.3758C137.892 88.0006 137.279 87.3563 136.87 86.9485C136.47 86.5489 135.833 85.9046 135.474 85.5213C134.314 84.3061 129.796 79.8694 129.036 79.1925C128.636 78.8418 127.974 78.2464 127.574 77.8713C127.174 77.4961 126.275 76.7213 125.573 76.1423C123.547 74.4785 121.497 72.7495 120.745 72.0726C120.361 71.7301 119.43 70.9145 118.662 70.2621C117.902 69.6015 116.906 68.7451 116.464 68.3455C116.015 67.9459 115.157 67.1955 114.553 66.6817C113.164 65.491 112.601 65.0017 111.245 63.7865C110.648 63.2482 109.243 62.0575 108.124 61.1359C107.013 60.2143 105.502 58.9747 104.783 58.3793C104.056 57.7758 103.19 57.0826 102.855 56.8297C101.801 56.0386 100.331 54.8642 99.0646 53.7958C97.0061 52.0668 96.328 51.5286 94.8086 50.3949C93.9999 49.7996 93.0441 49.0819 92.6847 48.8127C91.5002 47.9319 91.3123 47.8014 89.5397 46.6678C88.5757 46.048 87.6772 45.4608 87.5383 45.371C87.4076 45.2732 86.9501 44.9551 86.5253 44.6615C84.8997 43.536 83.6744 42.6552 82.4817 41.7663C81.9344 41.3585 81.0113 40.6897 80.4313 40.2819C79.5001 39.6295 78.9527 39.2951 77.0004 38.2022C76.7798 38.0799 76.4612 37.9739 76.306 37.9739C76.1508 37.9739 75.8159 37.9005 75.5708 37.8108C75.0888 37.6395 74.4272 37.5987 74.1903 37.7292C74.1086 37.77 73.9942 37.9249 73.937 38.0717C73.8798 38.2185 73.7736 38.4061 73.7083 38.4795C73.5449 38.6753 73.6266 39.0423 74.0187 39.7681C74.1984 40.1025 74.6395 40.967 74.999 41.6847C76.0854 43.8623 76.404 44.425 77.0739 45.314C78.046 46.6025 78.1685 46.7575 78.8874 47.5975C79.2468 48.0216 79.982 48.9024 80.513 49.5549C81.7547 51.0637 82.9473 52.4175 84.2054 53.7224C84.7527 54.2933 85.251 54.8642 85.3163 54.9947C85.3817 55.117 85.5124 55.2883 85.6022 55.3699C85.8228 55.5738 86.509 57.1152 86.5662 57.5637C86.6642 58.2733 86.2313 58.4038 84.7854 58.0857C84.238 57.9634 83.7316 57.8329 83.6499 57.7839C83.5682 57.7432 83.4457 57.7105 83.364 57.7105C83.1679 57.7105 81.5178 56.1283 76.4122 51.0392C73.9534 48.5844 71.6906 46.3742 71.3883 46.1295C68.57 43.8215 68.1371 43.4463 66.585 41.9701C64.747 40.2167 63.587 39.132 62.5659 38.2186C62.1411 37.8352 61.7081 37.4111 61.6019 37.2806C61.4304 37.0604 61.12 36.7831 60.0907 35.935C59.9028 35.78 59.5352 35.5027 59.282 35.3233C59.0206 35.1439 58.4569 34.7116 58.024 34.3691C57.591 34.0184 56.7333 33.3578 56.1288 32.9011C54.5277 31.6859 53.9232 31.1965 52.7387 30.1445C50.9088 28.5133 50.3615 28.0729 47.0449 25.5528C46.2035 24.9167 45.1252 24.0848 44.6514 23.7015C44.1695 23.3182 43.3526 22.6657 42.8298 22.2498C41.196 20.9449 38.0428 18.6205 37.136 18.0659C35.1918 16.8671 34.3177 16.288 32.7166 15.1788C31.7445 14.5019 30.4538 13.5885 29.8412 13.1481C29.1795 12.6669 28.2891 12.1123 27.6274 11.7698C27.0147 11.4599 26.0753 10.9379 25.5361 10.6117C24.997 10.2936 23.9595 9.72272 23.2407 9.35571C22.5136 8.98871 21.5252 8.42596 21.0432 8.11604C20.21 7.57777 18.3393 6.57463 18.1596 6.57463C18.1187 6.57463 17.89 6.44414 17.6613 6.28918C17.0813 5.88956 15.1779 4.72331 14.6306 4.4297C14.3855 4.29921 13.8546 4.0627 13.4461 3.90775C13.0458 3.75278 12.5312 3.52443 12.3025 3.41025C11.2977 2.9046 8.61012 1.80359 7.05802 1.26532C6.42084 1.04512 5.68564 0.767822 5.42423 0.653641C4.28875 0.147995 3.8558 0.0419617 2.74483 0.00933838C2.09948 -0.0151215 1.55216 0.00933838 1.35611 0.0664368ZM4.19073 1.06142C4.51748 1.16743 5.04846 1.36319 5.35888 1.50183C5.67747 1.63232 6.29831 1.86067 6.7476 2.00748C7.60534 2.29292 9.29631 2.93723 10.056 3.27161C10.3011 3.37762 11.0036 3.69569 11.6081 3.96483C12.2126 4.24211 12.9315 4.55203 13.2011 4.6499C14.0588 4.97612 16.0929 6.15871 17.1957 6.95796C17.4571 7.15369 17.7185 7.30865 17.7757 7.30865C17.9635 7.30865 19.7362 8.26286 20.6021 8.82559C21.0759 9.13551 21.8193 9.56776 22.2522 9.79613C22.6852 10.0163 23.0446 10.2284 23.0446 10.261C23.0446 10.2936 22.5218 10.7177 21.8846 11.1989C21.2393 11.6801 20.3897 12.3488 19.9813 12.6914C19.581 13.0339 19.0337 13.4499 18.7723 13.6211C18.5109 13.7924 17.8655 14.347 17.3345 14.8445C16.8036 15.342 16.0765 16.0189 15.7089 16.3451C15.3495 16.6713 14.7613 17.2749 14.4182 17.6908C14.067 18.0986 13.5605 18.6776 13.2827 18.9712C12.8171 19.4769 11.5183 21.0428 11.1588 21.5403L10.9954 21.7605L10.4645 20.9694C9.54137 19.5747 8.88786 18.4574 7.74421 16.288C7.26224 15.3746 5.66113 12.7158 4.46847 10.8564C4.32143 10.628 3.95383 9.94292 3.65158 9.31493C3.34933 8.6951 2.81018 7.67564 2.45074 7.04767C1.62568 5.62859 1.55216 5.44916 1.22541 4.25027C1.01301 3.45102 0.964 3.10849 0.955831 2.39894L0.947662 1.51814L1.24991 1.21638C1.4623 1.01248 1.65836 0.8983 1.90343 0.857529C2.48342 0.751511 3.54538 0.849365 4.19073 1.06142ZM25.0542 11.3539C25.626 11.6882 26.5736 12.2102 27.1618 12.5038C27.7581 12.8056 28.6322 13.3438 29.1305 13.7108C30.6826 14.8526 34.2769 17.2667 35.6738 18.1067C36.409 18.5553 37.0053 18.9549 36.989 19.0038C36.9726 19.0446 36.8746 19.1099 36.7602 19.1343C36.3191 19.2567 33.7949 21.0101 31.8671 22.5516C29.7268 24.2479 26.1243 27.6651 24.6702 29.3615C24.2945 29.8019 23.6328 30.5359 23.208 30.9926C22.2032 32.061 21.1249 33.4067 20.6266 34.2223C20.406 34.5811 20.21 34.8747 20.1855 34.8666C20.1365 34.8666 18.8703 33.1131 17.5224 31.2047C17.0078 30.4625 16.199 29.3452 15.7334 28.7172C14.4917 27.0453 13.0132 24.8759 12.0411 23.3182L11.5264 22.4782L11.9104 21.9725C12.5475 21.1243 13.2419 20.2761 13.8546 19.5829C14.1732 19.224 14.9002 18.3759 15.4638 17.7071C16.8281 16.0841 18.0289 14.9423 19.3931 13.98C19.6055 13.8332 20.0956 13.4662 20.4877 13.1562C21.6641 12.251 23.8615 10.734 23.9922 10.734C24.0085 10.734 24.4823 11.0113 25.0542 11.3539ZM38.6064 19.9907C39.0149 20.2843 39.652 20.7492 40.036 21.0265C40.4199 21.3037 41.2613 21.9562 41.9148 22.4782C42.5683 23.0001 43.23 23.5139 43.3852 23.6199C43.5404 23.726 44.0551 24.1338 44.5289 24.5171C45.0027 24.9085 46.0892 25.7404 46.9387 26.3847C49.2179 28.0811 51.1376 29.6062 52.2485 30.593C53.335 31.5635 54.2908 32.3383 55.5161 33.2436C56.4555 33.9368 56.4882 33.9613 57.5828 34.834C58.0321 35.1928 58.6121 35.6332 58.8654 35.8126C59.4535 36.2204 60.1234 36.7587 60.6625 37.2562C60.8994 37.4764 61.1281 37.6477 61.1772 37.6477C61.2262 37.6477 61.7898 38.2267 62.4352 38.9281C64.0771 40.7223 66.487 43.2506 67.0833 43.797C67.361 44.0498 67.794 44.4168 68.0472 44.6044C68.3005 44.7838 68.6681 45.0856 68.8723 45.2732C69.0765 45.4526 69.4441 45.7625 69.6892 45.9501C69.9342 46.1458 70.4162 46.5373 70.7511 46.8309C71.0861 47.1164 71.6416 47.5649 71.9765 47.8177C72.9486 48.5518 73.5939 49.1553 77.4415 52.9803C81.0603 56.5769 83.7724 59.1867 85.1693 60.4264C86.1251 61.2746 88.3307 63.4521 90.4873 65.6786C94.4083 69.732 95.1109 70.466 95.9114 71.3712C96.3689 71.885 97.4063 73.0024 98.2232 73.8424C99.7018 75.3594 102.21 78.0996 102.577 78.5971C102.683 78.7439 102.904 78.9968 103.059 79.1517C103.214 79.3148 103.819 80.1059 104.391 80.9133C106.237 83.5068 107.732 85.35 109.488 87.1932C109.79 87.5031 110.223 88.0006 110.46 88.2942C110.689 88.5878 111.163 89.1179 111.506 89.4768C111.849 89.8438 112.609 90.6675 113.189 91.3118C114.7 92.9837 115.108 93.4323 116.17 94.5333C117.567 95.9931 121.039 100.104 122.526 102.069C124.307 104.418 124.584 104.769 125.932 106.4C127.517 108.3 127.484 108.259 129.543 110.967C131.389 113.389 132.712 115.053 133.652 116.146C134.395 117.01 135.939 118.984 136.707 120.052C137.091 120.591 137.165 120.746 137.165 121.039C137.165 121.235 137.132 121.496 137.083 121.61C137.001 121.822 136.56 122.385 136.021 122.948C135.866 123.119 135.531 123.502 135.286 123.804C134.297 125.027 133.815 125.557 132.958 126.397C132.467 126.887 132.002 127.303 131.92 127.327C131.83 127.352 131.528 127.213 131.103 126.936C130.727 126.691 129.821 126.153 129.077 125.729C126.422 124.236 125.998 123.983 124.029 122.744C123.596 122.466 122.632 121.92 121.889 121.528C121.145 121.137 120.451 120.754 120.337 120.672C120.222 120.599 119.675 120.297 119.111 120.003C118 119.432 117.314 119.017 116.595 118.503C116.342 118.315 115.999 118.103 115.844 118.022C115.688 117.94 115.394 117.761 115.19 117.614C114.986 117.467 114.545 117.198 114.21 117.002C113.875 116.814 112.976 116.227 112.208 115.705C111.449 115.175 110.199 114.368 109.431 113.903C108.671 113.438 107.691 112.835 107.266 112.549C106.841 112.272 106.163 111.856 105.771 111.628C105.371 111.399 104.513 110.836 103.852 110.38C103.19 109.923 102.3 109.311 101.875 109.018C101.442 108.724 100.911 108.324 100.69 108.129C100.462 107.941 99.9142 107.525 99.4649 107.215C99.0156 106.905 98.2151 106.343 97.6841 105.976C97.1531 105.6 96.2055 104.948 95.5928 104.524C93.8855 103.35 92.5622 102.412 92.1537 102.077C91.9495 101.914 91.5329 101.604 91.2143 101.392C90.4873 100.911 90.0788 100.617 88.8045 99.6795C88.2408 99.2635 86.8439 98.3093 85.7003 97.559C83.5273 96.1318 81.4279 94.6801 80.7989 94.1663C80.5947 94.0032 80.1209 93.6606 79.7451 93.3996C79.3694 93.1387 78.7485 92.6819 78.3564 92.3802C77.9725 92.0866 77.2944 91.5809 76.837 91.271C75.244 90.1618 72.7362 88.1311 71.1514 86.6712C70.5387 86.1085 69.73 85.3826 69.3543 85.0564C68.9785 84.7383 68.5129 84.3306 68.3331 84.1593C66.1112 82.1204 65.474 81.525 64.7225 80.7747C64.2405 80.3017 63.7177 79.7634 63.5462 79.5921C63.3828 79.4209 62.8191 78.8989 62.2963 78.4259C61.7735 77.9528 61.0301 77.2596 60.638 76.8763C59.6986 75.9547 56.7169 73.3204 55.9082 72.6925C55.7857 72.5946 55.0913 71.9829 54.3724 71.3305C53.6536 70.678 52.804 69.9277 52.4936 69.6586C51.6113 68.9082 50.386 67.7338 50.2308 67.5055C49.8305 66.8938 44.3165 61.3724 43.6303 60.8912C43.3444 60.6873 42.4458 59.8962 41.6453 59.1378C40.8365 58.3711 39.7664 57.3925 39.2599 56.9602C38.1653 56.0223 37.6752 55.5493 35.4777 53.2494C34.5628 52.2952 33.5417 51.1616 33.1986 50.7212C32.8555 50.2807 32.3735 49.7017 32.1203 49.4326C31.8671 49.1634 31.2789 48.5028 30.8051 47.9645C30.3313 47.4263 29.6696 46.6923 29.3347 46.3334C28.2237 45.159 25.5198 42.0272 24.6866 40.9507C23.2162 39.0667 22.6117 38.2593 22.0643 37.4845C21.7294 37.0115 21.321 36.4569 21.1494 36.253C20.9779 36.041 20.839 35.8289 20.839 35.7882C20.839 35.6658 21.7294 34.2794 22.1297 33.7737C22.3012 33.5454 22.726 32.9582 23.0609 32.4688C23.8043 31.3678 24.5885 30.3157 25.1277 29.6714C25.3564 29.4023 25.724 28.9537 25.9446 28.6764C26.4674 28.0321 28.9589 25.5854 30.0617 24.6394C31.042 23.7912 33.0842 22.2009 33.6969 21.8012C33.9256 21.6463 34.4484 21.3037 34.8569 21.0346C35.2653 20.7736 35.9679 20.3903 36.4253 20.1946C36.8828 19.9988 37.2585 19.8112 37.2585 19.7705C37.2585 19.7134 37.6833 19.4932 37.8304 19.4687C37.8549 19.4606 38.2061 19.6971 38.6064 19.9907ZM75.2195 38.4143C75.3911 38.4795 75.7342 38.5774 75.9793 38.6345C76.2243 38.6834 76.6736 38.8547 76.9759 39.0015C77.662 39.344 79.5164 40.4532 79.9003 40.7468C80.5048 41.2198 82.7513 42.8591 83.4538 43.3484C83.8623 43.6257 84.3442 43.9764 84.5403 44.1151C85.5941 44.9062 86.0515 45.2242 87.5383 46.2192C88.4369 46.8227 89.3763 47.4426 89.6214 47.5894C90.3239 48.0298 92.2926 49.351 92.9706 49.8403C93.3055 50.085 93.9999 50.5907 94.5145 50.9577C95.5275 51.6998 96.6957 52.6459 98.8604 54.4646C99.6446 55.1252 100.854 56.0876 101.548 56.6177C102.242 57.1396 103.092 57.8003 103.427 58.0775C105.681 59.9533 106.278 60.4508 107.152 61.1522C107.683 61.5845 108.769 62.4571 109.554 63.077C110.338 63.7049 111.441 64.6428 112.004 65.173C112.568 65.7031 113.777 66.7796 114.7 67.5707C115.623 68.3537 117.02 69.5525 117.804 70.2213C118.588 70.8901 119.806 71.9503 120.5 72.562C121.758 73.6711 122.338 74.1686 125.246 76.6153C127.394 78.4259 128.505 79.478 132.247 83.2785C134.06 85.1135 135.972 87.0545 136.495 87.5847C137.017 88.1229 137.655 88.808 137.9 89.1179C138.145 89.4278 138.529 89.8764 138.741 90.1211L139.133 90.5696L138.888 91.0019C138.749 91.2384 138.333 91.744 137.957 92.1273C137.001 93.0979 136.16 94.0195 135.465 94.835C135.106 95.2591 134.526 95.7974 133.995 96.2052C132.998 96.98 132.263 97.6569 132.263 97.8118C132.263 97.8689 132.247 97.9179 132.222 97.9179C132.124 97.9179 131.005 97.192 130.066 96.5151C129.502 96.0992 128.873 95.6587 128.669 95.5201C128.195 95.2102 126.708 94.0766 126.177 93.6362C125.957 93.4486 125.597 93.1876 125.377 93.0489C124.552 92.5433 122.697 90.8224 119.397 87.5276C117.51 85.6355 114.496 82.675 112.69 80.9378C110.893 79.2088 109.186 77.5369 108.9 77.227C108.614 76.9252 108.01 76.3217 107.552 75.8976C105.935 74.3807 103.615 72.2439 102.692 71.4202C101.025 69.9277 96.0258 64.9772 94.4982 63.2972C91.7453 60.2877 90.9039 59.3906 88.7473 57.2212C87.4076 55.8674 86.5417 54.9213 86.4191 54.6929C86.3048 54.4727 86.1332 54.277 85.978 54.2036C85.5696 54.0079 83.1107 51.3573 81.3626 49.2287C80.9705 48.7556 80.3088 47.989 79.884 47.516C78.1032 45.526 76.9023 43.7807 76.0119 41.8886C75.8567 41.5542 75.4319 40.6816 75.0725 39.9557C74.3781 38.5611 74.321 38.3001 74.7131 38.3001C74.8274 38.3001 75.0562 38.349 75.2195 38.4143ZM89.5397 59.1459C90.1033 59.725 91.3287 61.0462 92.2681 62.0738C95.1844 65.2708 99.0891 69.1692 103.713 73.4917C105.24 74.9189 107.283 76.86 108.247 77.806C109.21 78.7521 111.253 80.7176 112.78 82.1775C114.308 83.6292 115.909 85.1706 116.334 85.6028L117.11 86.3776L116.742 86.4266C116.032 86.5081 115.607 86.8914 115.313 87.7151C115.133 88.229 115.166 88.7509 115.402 89.3137C115.517 89.5828 115.697 90.1129 115.803 90.4962C115.901 90.8795 116.081 91.426 116.195 91.7196C116.407 92.2742 117.812 94.9981 117.992 95.2183C118.049 95.2917 118.164 95.4549 118.245 95.5935C118.368 95.8055 118.343 95.7892 118.074 95.5119C117.486 94.884 115.141 92.3312 114.782 91.9235C114.577 91.6951 114.177 91.2547 113.883 90.9448C113.589 90.6267 112.805 89.7704 112.127 89.0364C111.457 88.3024 110.444 87.2258 109.888 86.6305C108.916 85.6028 108.059 84.6078 106.784 83.0338C104.178 79.8123 103.566 79.0131 103.623 78.8663C103.729 78.5971 103.533 78.3606 101.066 75.653C100.633 75.1799 99.4567 73.9484 98.4438 72.9208C97.4309 71.885 96.2709 70.678 95.8706 70.2295C94.4655 68.6717 91.5247 65.646 88.3307 62.4571L85.1121 59.2601H85.5859C86.1577 59.2601 86.5662 59.0807 86.8112 58.7137C87.0155 58.4119 87.1952 57.4332 87.1135 57.0418C87.0645 56.7808 87.0808 56.7889 87.7915 57.4333C88.1918 57.8003 88.976 58.575 89.5397 59.1459ZM43.9326 72.5864C44.1041 72.6517 44.4472 72.7495 44.6923 72.8066C44.9373 72.8556 45.3866 73.0268 45.6889 73.1736C46.3751 73.5162 48.2294 74.6253 48.6134 74.9189C49.2179 75.392 51.4643 77.0313 52.1668 77.5206C52.5753 77.7979 53.0573 78.1486 53.2533 78.2872C54.3071 79.0783 54.7646 79.3964 56.2513 80.3914C57.1499 80.9949 58.0893 81.6147 58.3344 81.7615C59.0369 82.2019 61.0056 83.5231 61.6836 84.0125C62.0186 84.2572 62.7129 84.7628 63.2276 85.1298C64.2405 85.872 65.4087 86.818 67.5734 88.6367C68.3577 89.2973 69.5666 90.2597 70.261 90.7898C70.9554 91.3118 71.8049 91.9724 72.1399 92.2497C74.3945 94.1255 74.9908 94.623 75.8649 95.3244C76.3959 95.7566 77.4823 96.6293 78.2665 97.2491C79.0508 97.8771 80.1536 98.815 80.7172 99.3451C81.2809 99.8752 82.4899 100.952 83.413 101.743C84.3361 102.526 85.7329 103.725 86.5172 104.393C87.3014 105.062 88.5186 106.122 89.2129 106.734C90.4709 107.843 91.0509 108.341 93.9591 110.787C96.1075 112.598 97.2185 113.65 100.96 117.451C102.773 119.286 104.685 121.227 105.208 121.757C105.73 122.295 106.368 122.98 106.613 123.29C106.858 123.6 107.242 124.049 107.454 124.293L107.846 124.742L107.609 125.15C107.487 125.378 106.825 126.136 106.147 126.846C105.469 127.555 104.807 128.265 104.685 128.42C104.17 129.048 103.484 129.806 103.411 129.806C103.321 129.806 102.324 129.089 101.523 128.444C100.813 127.865 99.71 127.123 98.1579 126.153C97.0796 125.484 95.7317 124.456 93.665 122.727C92.4315 121.7 92.072 121.382 89.8011 119.351C88.976 118.625 87.9631 117.728 87.5465 117.369C87.1298 117.01 86.1986 116.162 85.4797 115.493C84.7608 114.816 83.462 113.626 82.5879 112.835C81.7138 112.052 80.366 110.82 79.5817 110.102C78.7975 109.393 77.7519 108.455 77.2536 108.031C76.404 107.313 75.9384 106.897 73.1446 104.402C69.2889 100.952 68.3822 100.136 67.4427 99.2635C66.4298 98.3175 63.5216 95.6506 60.9076 93.2691C59.6087 92.0866 56.9375 89.3463 55.5243 87.7641C52.6488 84.5181 50.9823 82.52 50.1654 81.313C50.0184 81.0928 49.5773 80.53 49.1852 80.057C48.4745 79.1925 46.2362 76.1994 45.6072 75.2778C45.2641 74.764 45.1089 74.6417 44.8965 74.7232C44.7576 74.7803 44.7249 75.2044 44.8556 75.2859C44.8965 75.3104 45.6807 76.3299 46.5956 77.5532C47.5105 78.7766 48.4908 80.0407 48.7686 80.3751C49.0463 80.7094 49.5773 81.4027 49.9449 81.9165C50.5821 82.8136 53.2288 86.0106 54.544 87.4786C57.3868 90.643 59.5842 92.9103 61.2343 94.3702C61.6428 94.729 62.4107 95.4304 62.9498 95.9197C63.489 96.4172 64.4856 97.3143 65.1554 97.9179C65.8335 98.5214 66.8382 99.4348 67.4019 99.9568C68.6436 101.09 71.2086 103.358 72.9404 104.834C74.5334 106.204 77.033 108.447 78.2665 109.621C78.7812 110.111 80.2108 111.456 81.4443 112.598C82.6778 113.74 84.238 115.192 84.9079 115.82C85.5777 116.447 86.5008 117.271 86.9583 117.646C87.4158 118.03 88.0774 118.601 88.4369 118.91C88.7963 119.229 89.4825 119.816 89.9481 120.224C90.4219 120.623 91.0999 121.235 91.4594 121.577C92.3498 122.426 93.8039 123.657 94.7106 124.342C95.1272 124.644 95.9768 125.345 96.6058 125.884C101.254 129.88 101.099 129.757 101.981 130.222L102.545 130.516L102.185 130.785C101.662 131.193 100.976 131.87 100.976 131.984C100.976 132.041 100.96 132.09 100.935 132.09C100.837 132.09 99.7182 131.364 98.7787 130.687C98.2151 130.271 97.5861 129.831 97.3818 129.692C96.908 129.382 95.4213 128.249 94.8903 127.808C94.6698 127.621 94.3103 127.36 94.0898 127.221C93.2647 126.715 91.4104 124.995 88.1101 121.7C86.2231 119.808 83.2088 116.847 81.4034 115.11C79.6063 113.381 77.8989 111.709 77.613 111.399C77.3271 111.097 76.7226 110.494 76.2652 110.07C74.6477 108.553 72.3277 106.416 71.4046 105.592C69.7382 104.1 64.7388 99.1494 63.2112 97.4693C60.5155 94.517 59.6251 93.5791 57.4358 91.3526C53.8823 87.7478 51.7747 85.4724 50.0756 83.4008C49.6835 82.9278 49.0218 82.1612 48.597 81.6881C46.8162 79.6982 45.6154 77.9529 44.7249 76.0607C44.5697 75.7264 44.1449 74.8537 43.7855 74.1278C43.0912 72.7332 43.034 72.4723 43.4261 72.4723C43.5404 72.4723 43.7692 72.5212 43.9326 72.5864ZM66.8301 84.1593C67.6143 84.9015 68.5129 85.717 68.8233 85.978C69.1337 86.2471 69.9016 86.9404 70.5387 87.5194C71.6171 88.5144 72.679 89.4115 73.7655 90.2352C74.0187 90.4228 74.5007 90.7898 74.8356 91.0508C75.1705 91.3036 75.8159 91.7685 76.2652 92.0866C76.7145 92.3965 77.5395 93 78.1032 93.4159C78.6668 93.8319 79.5654 94.4925 80.1046 94.8921C81.142 95.6506 83.5273 97.2409 85.8228 98.7008C86.5907 99.182 87.5955 99.8671 88.0693 100.21C88.5431 100.56 89.4417 101.205 90.0707 101.637C90.6997 102.077 91.3695 102.558 91.5574 102.705C91.9413 103.007 93.1912 103.88 95.1027 105.168C97.5534 106.824 97.9128 107.077 98.1824 107.305C98.3294 107.435 98.7706 107.762 99.1627 108.023C99.5548 108.292 100.02 108.643 100.2 108.806C100.551 109.132 100.551 109.132 99.3179 108.398C98.0517 107.656 96.7773 107.109 96.1892 107.068C95.7644 107.036 95.601 107.077 94.9638 107.329C94.5309 107.509 94.1469 107.729 94.0162 107.876C93.812 108.088 93.7875 108.178 93.7875 108.643C93.7875 108.985 93.8529 109.344 93.9836 109.695L94.1715 110.225L93.665 109.801C92.2272 108.594 90.2014 106.873 89.7031 106.441C89.3926 106.171 88.5022 105.397 87.7262 104.728C86.9501 104.051 85.7983 103.048 85.1611 102.485C84.5321 101.922 83.413 100.952 82.6696 100.324C81.9344 99.6958 81.2564 99.1086 81.1665 99.0189C80.2353 98.0484 73.3325 92.3231 70.4652 90.1292C69.9342 89.7214 68.8559 88.8488 68.0636 88.1882C66.2909 86.7038 64.7797 85.4724 64.3222 85.1461C63.9954 84.9178 62.1084 83.5068 61.9941 83.409C61.9614 83.3845 62.2146 83.36 62.5577 83.36H63.1786L63.5053 82.993C63.8566 82.5934 64.1261 82.0796 64.1343 81.7942C64.1343 81.6555 64.2487 81.7289 64.7715 82.2182C65.1146 82.5526 66.0458 83.4253 66.8301 84.1593ZM137.434 118.984C138.251 119.799 139.346 120.966 139.868 121.569C140.391 122.173 141.38 123.257 142.066 123.975C143.953 125.949 144.1 126.104 144.933 127.074C145.717 127.988 148.617 131.593 149.222 132.416C149.859 133.281 150.978 134.961 151.191 135.377C151.305 135.613 151.46 135.891 151.542 136.005C151.615 136.119 151.836 136.633 152.032 137.147C152.228 137.66 152.449 138.223 152.53 138.386C152.62 138.557 152.685 138.712 152.685 138.737C152.685 138.835 152.44 138.761 151.787 138.451C151.403 138.272 151.035 138.125 150.97 138.125C150.905 138.125 150.627 137.995 150.365 137.832C149.884 137.546 149.532 137.391 148.519 137.024C147.686 136.722 146.616 136.233 145.399 135.605C144.647 135.222 144.182 135.026 144.002 135.026C143.814 135.026 143.259 134.79 142.278 134.3C141.486 133.892 140.734 133.493 140.612 133.411C140.261 133.158 139.444 132.767 138.659 132.473C138.267 132.327 137.54 131.943 137.042 131.625C136.552 131.315 136.013 130.989 135.857 130.907C135.702 130.826 135.13 130.467 134.591 130.1C134.052 129.733 133.276 129.219 132.859 128.958L132.108 128.493L132.41 128.151C132.574 127.963 133.064 127.458 133.488 127.034C134.436 126.087 135.179 125.247 135.817 124.383C136.078 124.024 136.446 123.559 136.634 123.347C137.508 122.344 137.663 122.132 137.818 121.74C138.03 121.194 138.03 120.631 137.818 120.281C137.687 120.069 136.356 118.258 135.833 117.589C135.784 117.524 135.784 117.491 135.849 117.491C135.906 117.491 136.617 118.16 137.434 118.984ZM143.185 123.421C145.064 124.986 146.853 126.715 148.666 128.705C150.047 130.222 151.918 132.53 152.432 133.354C153.347 134.806 154.532 136.527 155.128 137.269C155.487 137.717 155.978 138.451 156.206 138.9C156.443 139.349 156.778 139.919 156.95 140.172C157.121 140.417 157.481 141.11 157.75 141.706C158.02 142.301 158.363 142.994 158.51 143.247C159.229 144.454 159.384 144.797 159.384 145.172C159.384 145.376 159.351 145.547 159.302 145.547C158.976 145.547 156.051 144.136 154.115 143.035C153.715 142.807 153.167 142.546 152.914 142.448C152.653 142.35 152.122 142.064 151.73 141.803C151.329 141.551 150.66 141.143 150.235 140.906C148.822 140.107 147.564 139.34 145.162 137.815C144.141 137.163 141.96 135.874 141.167 135.45C140.783 135.246 140.105 134.822 139.656 134.496C138.676 133.795 137.205 132.775 136.29 132.147C135.645 131.715 133.488 129.986 133.488 129.912C133.488 129.888 133.717 130.043 134.003 130.247C135.563 131.389 137.745 132.718 138.635 133.069C139.109 133.256 139.803 133.607 140.187 133.843C140.571 134.08 141.233 134.455 141.657 134.684C142.082 134.904 142.679 135.214 142.981 135.377C143.283 135.54 143.708 135.695 143.92 135.727C144.173 135.76 144.598 135.948 145.088 136.233C145.905 136.706 147.024 137.228 148.193 137.677C149.197 138.068 149.565 138.231 150.104 138.566C150.374 138.729 150.651 138.859 150.717 138.859C150.79 138.859 151.019 138.949 151.231 139.063C151.722 139.324 152.963 139.764 153.355 139.813C153.609 139.846 153.674 139.822 153.788 139.65C153.903 139.471 153.911 139.414 153.813 139.234C153.756 139.128 153.519 138.696 153.282 138.272C153.053 137.856 152.743 137.22 152.604 136.861C152.465 136.502 152.269 136.078 152.179 135.923C152.081 135.768 151.869 135.401 151.705 135.108C151.174 134.194 149.589 131.935 148.397 130.418C145.333 126.512 144.639 125.688 142.474 123.372C141.78 122.629 141.151 121.944 141.086 121.863C140.816 121.512 141.51 122.026 143.185 123.421Z"
            fill="#1E2022"
          />
          <path
            d="M61.088 57.5566C60.7939 57.7279 60.9327 58.0215 61.7088 58.9105C62.6646 60.0115 63.0158 60.4437 64.0124 61.7486C64.4536 62.3277 64.9192 62.9394 65.0417 63.0943C65.1724 63.2493 65.5237 63.6897 65.8259 64.073C66.455 64.8641 67.4352 66.0059 70.809 69.8635C71.34 70.467 72.3611 71.5762 73.08 72.3428C73.7988 73.1013 74.7873 74.1697 75.2774 74.7079C75.7594 75.2544 76.5926 76.1189 77.1154 76.6327C77.6382 77.1465 79.2393 78.7613 80.6771 80.2048C82.1148 81.6565 83.6261 83.1409 84.0263 83.4997C84.4348 83.8667 85.2925 84.6823 85.946 85.3184C86.5995 85.9464 87.7187 87.0148 88.4376 87.6836C89.1564 88.3523 90.9781 90.0732 92.4812 91.5167C93.9843 92.9603 95.6752 94.5506 96.2389 95.04C96.8025 95.5375 99.3594 98.0086 101.916 100.537C104.481 103.065 106.793 105.316 107.063 105.544C107.332 105.765 107.92 106.278 108.37 106.686C109.383 107.6 109.865 108.007 110.861 108.758C111.654 109.353 112.585 110.136 113.557 111.009C114.529 111.89 116.359 113.007 116.833 113.007C116.955 113.007 117.094 112.958 117.143 112.893C117.233 112.778 117.184 112.517 117.07 112.517C116.955 112.517 114.701 110.976 113.051 109.769C112.136 109.1 111.213 108.432 110.984 108.277C109.767 107.453 107.046 104.965 104.13 101.997C100.707 98.5143 97.4642 95.3336 96.3206 94.3141C95.1197 93.2457 92.1054 90.4239 90.1939 88.5807C89.4505 87.863 87.8902 86.3787 86.7302 85.2777C83.7813 82.4884 80.0072 78.7858 78.5695 77.2688C77.8996 76.5674 77.3033 75.9721 77.2461 75.9558C77.1971 75.9313 76.805 75.5317 76.3884 75.0668C75.9718 74.6101 74.8853 73.4357 73.9785 72.4733C73.0718 71.5109 71.9853 70.3202 71.5605 69.8309C71.1358 69.3415 70.5394 68.6565 70.2208 68.3139C69.9104 67.9714 69.3713 67.3679 69.0363 66.9601C68.7014 66.5605 68.0397 65.7938 67.5659 65.2556C67.0921 64.7173 66.5366 64.0567 66.3242 63.7875C65.3031 62.4989 64.8048 61.8546 64.2984 61.1777C63.9961 60.7699 63.5386 60.1827 63.2854 59.8728C63.0322 59.5548 62.5257 58.9268 62.1663 58.4619C61.4556 57.5566 61.3085 57.4343 61.088 57.5566Z"
            fill="#1E2022"
          />
          <path
            d="M75.7752 40.2248C75.5465 40.4532 75.6853 40.7957 76.3143 41.5134C76.6248 41.8723 77.2047 42.5981 77.5887 43.1119C77.9808 43.6257 78.5935 44.4087 78.9529 44.8572C79.3205 45.2976 79.7453 45.8196 79.9005 46.0153C80.0557 46.2029 80.3334 46.5373 80.5132 46.7575C80.6929 46.9696 81.281 47.6791 81.8202 48.3315C83.7807 50.6967 85.0306 52.1158 86.8849 54.0813C87.6528 54.8887 88.6739 56.006 89.1641 56.5687C90.2097 57.7676 93.8775 61.4214 95.9524 63.3379C99.8 66.8856 104.473 71.412 108.394 75.3594C109.554 76.5175 110.755 77.6919 111.073 77.9692C111.392 78.2383 112.143 78.9071 112.748 79.4453C114.382 80.9052 115.002 81.4353 115.721 82.0144C116.391 82.5526 118.303 84.2572 119.479 85.3582C120.41 86.2308 122.714 88.1882 123.318 88.6204C123.841 88.9956 126.398 91.0345 127.199 91.7196C128.024 92.421 130.131 93.8156 131.226 94.3865C131.716 94.6393 133.121 95.1368 133.178 95.0797C133.211 95.0471 132.86 94.8024 132.41 94.5333C131.953 94.2641 131.299 93.8482 130.964 93.6035C130.621 93.3589 129.976 92.9103 129.527 92.6167C128.71 92.0703 128.506 91.9072 125.892 89.803C125.116 89.175 124.135 88.4002 123.719 88.0903C122.943 87.5031 120.966 85.8475 118.458 83.6863C117.682 83.0093 116.612 82.1204 116.097 81.6963C115.574 81.2722 114.439 80.3017 113.565 79.535C112.699 78.7684 111.8 77.9855 111.563 77.7897C111.335 77.594 108.688 74.9923 105.673 71.9992C99.8163 66.1679 98.8034 65.1893 95.8299 62.4C93.3711 60.1083 90.4711 57.213 89.3765 55.9571C88.9027 55.4188 87.9714 54.3912 87.2934 53.6735C85.7576 52.0342 84.1892 50.24 82.6371 48.3397C81.1177 46.4884 80.1619 45.3058 79.149 44.0254C78.6588 43.4055 77.8828 42.3371 76.9188 40.9588C76.3062 40.078 76.0693 39.9312 75.7752 40.2248Z"
            fill="#1E2022"
          />
          <path
            d="M146.134 97.6823C146.052 97.7231 145.987 97.8128 145.987 97.8781C145.987 97.9433 145.839 98.1553 145.66 98.3674C145.48 98.5713 145.243 98.9057 145.121 99.1014C144.99 99.3216 144.581 99.7375 144.083 100.145C143.136 100.928 142.801 101.287 142.392 101.956C142.212 102.258 141.902 102.592 141.534 102.877C140.693 103.546 140.432 103.807 140.432 103.97C140.432 104.182 140.587 104.468 141.338 105.667C143.781 109.581 147.016 113.08 149.54 114.548C149.859 114.736 150.847 115.258 151.746 115.706C152.652 116.163 153.616 116.718 153.91 116.946C154.204 117.174 154.776 117.623 155.177 117.949C156.002 118.602 158.077 120.118 159.906 121.383C160.576 121.847 161.36 122.427 161.663 122.655C161.957 122.891 162.439 123.258 162.733 123.47C163.778 124.237 164.791 124.996 165.976 125.909C167.046 126.733 167.912 127.328 171.384 129.603C172.274 130.183 172.462 130.223 172.519 129.824C172.56 129.563 172.168 128.176 171.759 127.157C171.572 126.659 171.237 125.779 171.024 125.199C170.51 123.797 170.256 123.258 168.835 120.526C166.85 116.726 165.976 115.364 164.007 113.007C163.092 111.914 162.455 111.188 161.818 110.495C161.524 110.169 161.042 109.532 160.764 109.068C158.632 105.61 155.667 102.347 153.077 100.61C151.991 99.8843 149.466 98.6121 148.29 98.2124C147.857 98.0575 147.334 97.8617 147.13 97.7639C146.73 97.5844 146.354 97.5518 146.134 97.6823ZM148.233 98.6692C149.23 98.9954 151.803 100.268 152.808 100.945C155.471 102.723 158.902 106.556 160.797 109.867C161.393 110.911 162.741 114.157 163.329 115.992C163.607 116.856 164.171 119.515 164.089 119.597C164.064 119.613 163.746 119.556 163.37 119.466C162.994 119.376 162.414 119.254 162.079 119.205C160.478 118.952 158.599 118.438 156.99 117.819C155.953 117.411 150.921 114.94 149.793 114.271C148.47 113.496 147.481 112.697 145.856 111.082C143.699 108.953 142.89 107.869 141.673 105.479L140.938 104.027L141.706 103.416C142.131 103.081 142.621 102.608 142.792 102.372C143.103 101.956 144.14 101.034 144.941 100.455C145.161 100.3 145.447 99.9741 145.619 99.7049C145.905 99.24 146.55 98.6528 146.771 98.6528C146.836 98.6528 146.926 98.5794 146.983 98.4897C147.097 98.3103 147.146 98.3103 148.233 98.6692ZM163.444 113.227C164.105 114.026 164.84 114.932 165.069 115.25C166.123 116.709 166.335 117.036 166.76 117.745C167.005 118.169 167.561 119.189 168.002 120.021C168.443 120.852 168.941 121.75 169.105 122.019C169.766 123.103 170.191 123.968 170.657 125.248C170.934 125.982 171.261 126.847 171.392 127.157C171.629 127.728 172.16 129.555 172.111 129.603C172.094 129.62 171.604 129.326 171.024 128.951C170.436 128.576 169.399 127.907 168.704 127.475C167.634 126.79 166.335 125.86 163.55 123.772C161.311 122.092 160.519 121.505 160.16 121.277C159.939 121.13 159.424 120.771 159.016 120.477C158.616 120.176 157.987 119.735 157.627 119.482C156.966 119.017 155.577 117.949 155.054 117.501L154.768 117.256L155.544 117.582C157.349 118.357 159.874 119.132 162.185 119.605C162.627 119.703 163.247 119.866 163.558 119.98C164.677 120.379 164.808 120.257 164.489 119.156C164.367 118.724 164.146 117.851 163.999 117.215C163.721 116.033 163.092 114.1 162.504 112.615C162.324 112.159 162.185 111.783 162.202 111.783C162.218 111.783 162.782 112.436 163.444 113.227Z"
            fill="#1E2022"
          />
          <path
            d="M114.758 130.223C114.676 130.272 114.505 130.476 114.374 130.672C114.251 130.876 113.998 131.145 113.818 131.267C113.639 131.398 113.41 131.626 113.304 131.781C113.206 131.928 112.944 132.246 112.724 132.483C112.511 132.719 112.103 133.306 111.825 133.779C111.499 134.318 111.147 134.782 110.878 135.035C110.641 135.247 110.249 135.696 109.995 136.022C109.75 136.348 109.448 136.666 109.334 136.732C109.13 136.838 109.097 136.83 108.884 136.585C108.762 136.446 108.599 136.332 108.533 136.332C108.255 136.332 108.321 136.601 108.803 137.335C109.064 137.743 109.53 138.55 109.824 139.113C111.098 141.576 113.524 145.14 115.183 147.008C116.62 148.623 120.787 152.178 123.932 154.47C124.356 154.78 124.896 155.172 125.116 155.343C125.745 155.8 126.056 155.979 127.804 156.884C128.702 157.349 129.642 157.855 129.895 158.018C131.137 158.817 136.446 161.199 138.677 161.957C139.085 162.096 139.722 162.332 140.106 162.479C140.939 162.805 141.675 163.001 142.042 163.001C142.369 163.001 142.516 162.773 142.442 162.357C142.385 162.006 141.348 158.833 141.062 158.148C140.539 156.892 140.327 156.428 139.722 155.253C139.371 154.56 138.913 153.622 138.726 153.173C138.137 151.803 136.79 149.291 136.022 148.15C134.543 145.907 132.215 143.183 130.663 141.853C129.666 141.005 128.645 140.141 127.681 139.341C127.216 138.95 126.538 138.289 126.17 137.865C125.443 137.025 123.303 134.962 122.461 134.285C121.26 133.323 120.043 132.605 118.744 132.091C117.862 131.74 117.045 131.316 116.277 130.811C115.657 130.411 115.126 130.134 114.97 130.134C114.938 130.134 114.84 130.175 114.758 130.223ZM116.498 131.7C117.282 132.083 118.213 132.515 118.565 132.654C119.504 133.029 120.117 133.355 121.056 133.983C122.502 134.954 124.74 136.976 125.892 138.355C127.085 139.774 129.192 143.224 130.516 145.915C130.981 146.853 131.57 147.995 131.823 148.443C132.721 150.017 132.844 150.278 133.318 151.518C133.775 152.725 134.053 153.72 134.208 154.699C134.274 155.106 134.265 155.172 134.151 155.172C134.004 155.172 130.973 154.283 127.877 153.337C125.99 152.757 124.969 152.342 122.339 151.102C121.399 150.661 120.345 149.985 119.316 149.169C118.352 148.411 114.635 144.732 113.876 143.794C113.304 143.085 111.735 140.785 110.943 139.472C110.608 138.934 110.2 138.306 110.028 138.069L109.718 137.645L110.02 137.131C110.42 136.438 110.551 136.267 111.278 135.492C111.613 135.125 112.095 134.473 112.348 134.048C112.797 133.282 113.524 132.368 114.047 131.887C114.194 131.749 114.472 131.488 114.652 131.292C114.831 131.104 115.003 130.957 115.027 130.974C115.052 130.982 115.714 131.308 116.498 131.7ZM129.854 141.943C131.749 143.591 134.135 146.315 135.572 148.484C136.144 149.348 137.737 152.13 137.737 152.268C137.737 152.301 137.917 152.7 138.783 154.601C138.856 154.756 139.11 155.253 139.355 155.702C140.171 157.186 140.98 159.249 141.544 161.248C141.699 161.786 141.822 162.251 141.822 162.283C141.822 162.414 141.479 162.34 140.702 162.055C140.261 161.892 139.624 161.68 139.289 161.582C138.954 161.476 138.366 161.264 137.982 161.101C137.598 160.938 136.741 160.587 136.063 160.326C133.481 159.298 131.153 158.197 129.936 157.406C129.576 157.178 128.661 156.664 127.894 156.264C126.284 155.433 125.966 155.237 124.585 154.242C122.706 152.888 121.8 152.154 119.765 150.327C118.311 149.022 118.001 148.729 118.099 148.729C118.132 148.729 118.279 148.835 118.418 148.965C119.414 149.911 121.236 151.094 122.625 151.705C123.049 151.893 123.883 152.276 124.479 152.545C125.075 152.823 126.015 153.19 126.562 153.369C127.894 153.801 129.356 154.242 129.813 154.356C130.017 154.405 131.169 154.764 132.37 155.147C134.87 155.955 134.845 155.955 134.821 155.245C134.804 154.625 134.314 152.806 133.816 151.502C133.024 149.414 129.625 142.808 128.294 140.777C128.147 140.557 128.171 140.565 128.588 140.891C128.833 141.079 129.405 141.56 129.854 141.943Z"
            fill="#1E2022"
          />
        </svg>